PathFileType	4	(X/Y/Z)	Kaydara	
DataRate	CameraRate	NumFrames	NumMarkers	Units	OrigDataRate	OrigDataStartFrame	OrigNumFrames	
60.00	60.00	4	74	mm	60.00	388	164	
Frame#	Time	N_lasi			N_rasi			N_rpsi			N_lpsi			N_fneck			N_bneck			N_fhead			N_rhead			N_lhead			N_rshld			N_relbtop			N_relbext			N_relblow			N_rwrext			N_rwrtop			N_rwrlow			N_lshld			N_lelbext			N_lelblow			N_lelbtop			N_lwrext			N_lwrtop			N_lwrlow			N_rtopleg			N_ltopleg			N_rkneefr			N_rkneebk			N_rkneeis			N_lkneefr			N_lknssbk			N_lkneeis			N_rankfr			N_rankis			N_rankbk			N_lankfr			N_lankbk			N_lankis			D_lasi			D_rasi			D_rpsi			D_lpsi			D_fneck			D_bneck			D_fhead			D_rhead			D_lhead			D_rshld			D_relbtop			D_relbext			D_relblow			D_rwrext			D_rwrtop			D_rwrlow			D_lshld			D_lelbext			D_lelblow			D_lelbtop			D_lwrext			D_lwrtop			D_lwrlow			D_rtopleg			D_ltopleg			D_rkneefr			D_rkneebk			D_rkneeis			D_lkneefr			D_lknssbk			D_lkneeis			D_rankfr			D_rankis			D_rankbk			D_lankfr			D_lankbk			D_lankis			
		X1	Y1	Z1	X2	Y2	Z2	X3	Y3	Z3	X4	Y4	Z4	X5	Y5	Z5	X6	Y6	Z6	X7	Y7	Z7	X8	Y8	Z8	X9	Y9	Z9	X10	Y10	Z10	X11	Y11	Z11	X12	Y12	Z12	X13	Y13	Z13	X14	Y14	Z14	X15	Y15	Z15	X16	Y16	Z16	X17	Y17	Z17	X18	Y18	Z18	X19	Y19	Z19	X20	Y20	Z20	X21	Y21	Z21	X22	Y22	Z22	X23	Y23	Z23	X24	Y24	Z24	X25	Y25	Z25	X26	Y26	Z26	X27	Y27	Z27	X28	Y28	Z28	X29	Y29	Z29	X30	Y30	Z30	X31	Y31	Z31	X32	Y32	Z32	X33	Y33	Z33	X34	Y34	Z34	X35	Y35	Z35	X36	Y36	Z36	X37	Y37	Z37	X38	Y38	Z38	X39	Y39	Z39	X40	Y40	Z40	X41	Y41	Z41	X42	Y42	Z42	X43	Y43	Z43	X44	Y44	Z44	X45	Y45	Z45	X46	Y46	Z46	X47	Y47	Z47	X48	Y48	Z48	X49	Y49	Z49	X50	Y50	Z50	X51	Y51	Z51	X52	Y52	Z52	X53	Y53	Z53	X54	Y54	Z54	X55	Y55	Z55	X56	Y56	Z56	X57	Y57	Z57	X58	Y58	Z58	X59	Y59	Z59	X60	Y60	Z60	X61	Y61	Z61	X62	Y62	Z62	X63	Y63	Z63	X64	Y64	Z64	X65	Y65	Z65	X66	Y66	Z66	X67	Y67	Z67	X68	Y68	Z68	X69	Y69	Z69	X70	Y70	Z70	X71	Y71	Z71	X72	Y72	Z72	X73	Y73	Z73	X74	Y74	Z74	

1	6.450	-93.62980	1053.30307	1277.75566	-69.78425	1087.06047	1533.42529	-349.21875	1148.99567	1595.03265	-384.43340	1123.81546	1237.19727	-300.72266	1507.87018	1312.31201	-252.63977	1606.71219	1411.14929	-42.21542	1642.22061	1269.77287	-153.67074	1709.30954	1424.59900	-207.39357	1684.69025	1278.97827	-200.50673	1456.92551	1650.55939	-267.50126	1163.15536	1778.51746	-297.90804	1120.63866	1728.41751	-184.07877	1158.61214	1744.28741	-196.81917	861.36810	1822.36908	-160.54020	861.82457	1789.63684	-180.80862	856.31538	1747.03995	-328.71731	1450.32883	1168.74977	-303.25186	1101.39755	1187.30515	-267.32061	1117.12120	1104.69002	-352.98721	1106.16135	1119.00826	-243.22538	820.17784	1108.45329	-195.24017	823.13225	1112.90123	-197.90602	828.63113	1165.13680	-166.83681	960.04387	1648.27301	-336.98471	955.63141	1193.30826	-22.85919	525.15232	1542.45865	-145.93481	513.51421	1613.88519	-124.47703	494.21734	1464.92096	-273.04689	429.14047	1342.92542	-382.61978	499.31293	1300.19760	-377.56126	484.64771	1442.10968	-57.73452	118.99777	1639.01657	-77.38457	116.45671	1561.35590	-149.39772	98.84099	1607.29065	-529.57493	162.45234	1365.04807	-594.38969	201.18662	1331.55319	-568.29296	197.50137	1421.07101	-817.84088	1023.02551	-167.14426	-947.73918	1042.74910	-419.96616	-750.21713	1148.30475	-463.34721	-643.84605	1117.71057	-273.54740	-872.88826	1519.73297	-219.75201	-791.85394	1601.41495	-301.53709	-922.35565	1683.50464	-101.92677	-904.38858	1732.71820	-278.51456	-774.29436	1714.16748	-196.29103	-969.96262	1485.02213	-419.27792	-1066.95282	1154.89418	-481.46126	-1032.38350	1156.32607	-414.25037	-1112.73209	1216.21300	-439.36844	-1235.00992	1020.29778	-333.67462	-1249.24850	1064.64409	-298.17244	-1200.14145	1057.06291	-273.68111	-632.59109	1477.38892	-159.78052	-621.49036	1148.29010	-227.67773	-552.76894	1183.51601	-158.30181	-544.00204	1167.03468	-237.94870	-512.27867	924.98192	-170.02542	-542.01805	924.14543	-137.07322	-587.81319	924.85085	-161.61734	-894.81354	999.13971	-515.27401	-672.00089	990.51338	-180.53171	-835.48424	459.62246	-482.97127	-773.19717	505.93971	-560.52837	-708.12508	486.37444	-452.19215	-924.98672	494.04961	-144.64021	-818.77632	479.28757	-200.14826	-946.34819	482.39227	-245.14637	-700.45860	148.93982	-578.61622	-645.46455	159.15777	-537.27062	-634.98962	171.94304	-619.00894	-997.93503	168.00369	-125.52877	-940.64110	131.75162	-164.01384	-1019.63295	161.71469	-189.66608 
2	6.467	-81.56940	1057.35046	1279.66515	-49.21292	1090.99609	1533.17184	-328.09883	1153.67836	1598.39890	-372.99725	1126.69785	1243.64624	-283.45142	1510.46967	1315.60699	-235.36854	1609.31152	1414.44427	-27.80277	1644.21646	1269.01932	-136.12399	1711.34445	1426.20026	-192.53437	1687.38312	1281.78848	-179.32943	1459.99969	1652.85568	-243.00083	1164.57214	1780.04440	-273.83877	1122.17552	1729.21341	-160.44065	1160.26917	1744.35211	-173.07253	863.07510	1823.56064	-137.45415	863.14247	1789.95407	-158.20719	857.78336	1747.54440	-316.03748	1453.59726	1173.61961	-294.04566	1104.82468	1194.42223	-260.17048	1120.02060	1110.09727	-345.42404	1110.32570	1127.45285	-242.04811	822.42409	1110.80261	-193.85950	824.65569	1113.01170	-194.26006	829.37157	1165.42221	-147.12169	964.01772	1648.74863	-325.46158	957.13089	1198.70300	-9.10892	523.80058	1542.09778	-132.19052	514.03748	1612.91611	-111.24380	494.92775	1465.89798	-239.68241	427.38804	1334.28619	-350.30701	499.24973	1296.97662	-340.60314	480.51430	1438.05817	-54.93648	117.96182	1638.55896	-75.55417	115.52906	1560.86334	-147.83031	100.35436	1607.41058	-508.75984	170.65426	1359.97589	-573.12317	214.21827	1330.62653	-544.40865	206.99989	1417.68219	-828.30902	1020.27016	-155.74618	-960.82413	1041.63719	-407.28828	-763.53340	1146.87538	-453.46790	-654.92493	1115.41794	-264.47168	-882.04803	1517.90009	-206.56483	-801.80496	1599.49326	-289.22501	-929.98032	1681.56281	-87.74301	-913.59055	1731.15387	-264.63215	-782.62413	1712.21069	-184.05043	-981.79466	1483.50403	-405.47997	-1075.30113	1151.90491	-467.90882	-1040.11597	1153.46825	-400.67299	-1121.20445	1212.52640	-424.85085	-1240.51964	1015.09094	-318.75406	-1254.40002	1059.01024	-282.52960	-1204.60632	1051.48300	-259.24646	-641.03958	1474.47678	-150.00020	-632.73998	1145.42984	-218.67107	-563.17554	1179.95140	-150.05234	-555.14954	1163.39661	-229.68637	-526.13106	920.91141	-161.39553	-555.96779	920.46402	-128.43630	-601.49773	921.91658	-152.96026	-909.39926	998.51402	-503.41835	-682.50191	987.68730	-171.61940	-848.53020	457.87758	-475.64430	-787.40402	506.44344	-553.03486	-721.33278	486.56101	-445.81509	-933.82813	489.49409	-136.09991	-827.55547	476.86634	-191.74442	-955.51811	478.76591	-236.27468	-705.48630	151.71072	-577.39849	-650.67986	162.49332	-536.02486	-640.72937	177.04370	-617.56065	-1000.00282	161.21651	-123.68711	-941.88583	127.69716	-162.07674	-1022.03217	155.88733	-187.39330 
3	6.483	-70.57937	1064.13094	1280.95917	-30.17751	1097.10907	1530.75333	-309.51656	1158.82263	1603.76923	-360.22102	1131.41449	1251.29196	-266.71585	1513.79913	1318.26706	-218.63297	1612.64099	1417.10434	-13.93929	1646.85120	1268.01964	-119.03135	1713.54065	1427.20551	-177.91910	1690.64148	1283.62183	-157.60170	1464.39835	1654.66141	-218.69184	1167.97600	1781.12946	-249.97711	1125.44853	1729.55872	-137.02633	1163.41148	1743.95813	-149.61652	866.06956	1822.98767	-114.53137	866.04324	1789.13544	-135.69899	860.59357	1746.79901	-304.06572	1457.69730	1177.90253	-285.28545	1109.26285	1201.18729	-253.56352	1123.86879	1115.18875	-338.20969	1115.56305	1135.50911	-241.43934	825.97488	1113.96591	-193.22094	827.35512	1113.84636	-191.19089	831.37344	1166.31126	-127.16571	965.43365	1650.60349	-314.82182	960.05844	1204.40269	1.26780	521.58974	1543.43857	-123.98795	513.91472	1611.10367	-100.10671	494.63570	1465.86319	-205.96466	429.12392	1324.29855	-317.73888	500.02338	1291.25122	-302.63229	477.89913	1432.72354	-53.96470	117.15584	1638.17627	-73.31917	115.20044	1560.16220	-146.48390	100.83419	1606.32126	-483.97865	179.88924	1356.05362	-547.42989	227.24169	1329.23676	-516.89877	217.32615	1413.60245	-838.16017	1018.53828	-143.85996	-973.85826	1041.09947	-393.70522	-776.44951	1145.92300	-442.46120	-665.62424	1113.44742	-254.44967	-891.16440	1516.53732	-192.90455	-811.75453	1598.12576	-276.38826	-937.12547	1680.49057	-73.41499	-922.83401	1730.14542	-250.46080	-791.03455	1710.54367	-171.28689	-993.38417	1482.14493	-391.00513	-1082.95097	1149.30283	-454.62418	-1047.36320	1150.99564	-387.43401	-1129.53667	1208.91975	-410.97668	-1245.54367	1009.45877	-305.46333	-1259.24080	1052.55722	-268.14875	-1209.17900	1045.34065	-246.03289	-649.54643	1472.09702	-139.43846	-643.94753	1143.13927	-209.31332	-573.74844	1176.84929	-141.10891	-566.39881	1160.23163	-220.57110	-540.36194	917.29706	-151.56985	-570.28996	917.36633	-118.76407	-615.86212	919.36348	-143.31431	-923.81844	998.35533	-490.60062	-693.71307	985.84343	-161.44161	-863.72314	456.21181	-467.98061	-803.10585	507.12189	-544.54922	-736.61308	486.66512	-438.27393	-940.61852	484.87877	-128.54664	-834.38988	474.56448	-184.08899	-962.31277	474.74907	-228.24484	-711.59973	155.27227	-576.08665	-657.03682	166.97943	-534.44923	-647.70378	183.14177	-615.60116	-1005.28526	158.06922	-117.36862	-948.72551	125.48881	-156.45264	-1027.21313	152.66394	-181.15686 
4	6.500	-59.96468	1071.37062	1279.99878	-13.45470	1103.04695	1527.07642	-288.42339	1161.81000	1608.54584	-348.09578	1135.32494	1259.43497	-250.22385	1517.24289	1320.26855	-202.14096	1616.08475	1419.10583	-0.15047	1649.82361	1266.94038	-102.94927	1716.18607	1427.62238	-163.89894	1694.15634	1284.94400	-135.32349	1469.35654	1655.71243	-194.79069	1172.58522	1782.26578	-226.49288	1129.82170	1729.78287	-113.95905	1167.54829	1743.26996	-125.93438	870.12909	1822.62100	-91.76147	869.70795	1787.42905	-113.38014	864.30359	1744.98260	-293.33607	1462.05307	1181.77628	-277.36605	1114.04419	1207.34840	-247.83276	1128.28362	1119.70062	-331.80061	1120.92026	1142.93701	-241.02797	830.11589	1117.83195	-192.77966	830.56488	1115.52361	-188.58273	834.10217	1167.77153	-105.88773	966.60263	1652.09656	-305.29572	963.18504	1209.50279	9.43155	519.29588	1544.53415	-118.38101	514.19819	1609.29657	-91.32446	494.85142	1465.18097	-173.02467	432.66701	1314.45450	-285.99808	502.21775	1283.94958	-264.61687	477.03022	1426.81976	-52.81021	116.38506	1637.52365	-71.79061	114.85098	1559.07104	-145.33480	101.45802	1605.25681	-458.28114	190.68573	1354.92111	-520.29118	240.03176	1328.97629	-488.33477	230.27115	1413.44360	-848.79532	1018.27164	-131.33440	-986.71768	1041.41647	-379.47823	-789.07188	1145.45586	-431.16280	-676.47301	1112.86613	-244.05258	-900.17891	1516.05270	-178.94999	-821.61774	1597.75696	-263.23805	-944.33189	1680.09491	-58.49236	-931.99455	1730.16205	-235.52563	-799.19937	1709.93820	-158.13957	-1004.96635	1481.58112	-376.03611	-1090.02220	1147.56195	-441.60473	-1054.08791	1148.86215	-374.74606	-1137.51778	1205.72433	-397.17422	-1250.03662	1003.36021	-293.87880	-1263.70224	1045.42931	-255.41649	-1213.38409	1038.43018	-234.16351	-658.18718	1470.21942	-128.21027	-655.56641	1141.21765	-198.82162	-584.49726	1174.37027	-131.05699	-577.83939	1157.41669	-210.51882	-554.76177	914.31946	-140.97468	-584.75418	914.85947	-108.17109	-630.25803	917.47520	-132.78255	-938.19717	998.49792	-477.03800	-704.37668	985.68848	-150.80793	-881.60416	454.55376	-459.38667	-821.00883	508.11687	-534.73053	-754.37645	486.87630	-429.39266	-946.90186	482.85282	-120.30088	-840.72319	473.34503	-175.54407	-968.03268	472.00741	-220.35894	-719.75037	159.86388	-574.15310	-665.92773	171.90893	-532.26475	-656.57616	190.49852	-612.74338	-1010.50316	154.88266	-112.09299	-953.46046	123.20251	-150.42860	-1032.33383	150.32214	-175.41782 
